<?xml version="1.0" encoding="UTF-8" standalone="no"?>
<!-- Uploaded to: SVG Repo, www.svgrepo.com, Generator: SVG Repo Mixer Tools -->

<svg
   fill="#000000"
   width="743.80804"
   height="744.42676"
   viewBox="0 0 22.314241 22.332803"
   version="1.1"
   id="svg1"
   sodipodi:docname="link.svg"
   xmlns:inkscape="http://www.inkscape.org/namespaces/inkscape"
   xmlns:sodipodi="http://sodipodi.sourceforge.net/DTD/sodipodi-0.dtd"
   xmlns="http://www.w3.org/2000/svg"
   xmlns:svg="http://www.w3.org/2000/svg">
  <defs
     id="defs1" />
  <sodipodi:namedview
     id="namedview1"
     pagecolor="#ffffff"
     bordercolor="#000000"
     borderopacity="0.25"
     inkscape:showpageshadow="2"
     inkscape:pageopacity="0.0"
     inkscape:pagecheckerboard="0"
     inkscape:deskcolor="#d1d1d1">
    <inkscape:page
       x="0"
       y="0"
       width="22.314241"
       height="22.332804"
       id="page2"
       margin="0"
       bleed="0" />
  </sodipodi:namedview>
  <path
     d="m 11.400114,10.909154 c -0.31076,-0.312451 -0.309387,-0.817664 0.0031,-1.1284227 0.312451,-0.310759 0.817664,-0.309387 1.128423,0.0031 2.06981,2.0810837 2.067059,5.4440907 -0.0062,7.5217857 L 9.0660351,20.77248 C 7.0023617,22.840616 3.6560989,22.854627 1.5751805,20.80384 -0.50390591,18.754295 -0.52784795,15.408215 1.5211845,13.329649 L 5.0056166,9.7949953 c 0.3093691,-0.313828 0.8145704,-0.317443 1.1283986,-0.0081 0.3138282,0.3093687 0.3174431,0.8145707 0.00807,1.1283987 l -3.4844321,3.534655 c -1.4302943,1.45091 -1.413582,3.786588 0.037328,5.216882 1.4562955,1.435207 3.7975371,1.425405 5.2414041,-0.02158 L 11.3958,16.178354 c 1.452342,-1.455484 1.454269,-3.811364 0.0043,-5.269221 z m -0.738944,0.488027 c 0.31076,0.312451 0.309387,0.817664 -0.0031,1.128423 -0.312451,0.310759 -0.8176636,0.309387 -1.1284226,-0.0031 -2.0701961,-2.081473 -2.0696629,-5.4444264 0.0012,-7.5252425 L 12.86397,1.6481078 c 2.149808,-2.16014713 5.633104,-2.20219213 7.834425,-0.094565 0.07276,0.06966 0.14349,0.1414041 0.21211,0.2151425 1.971064,2.1180769 1.851886,5.4329801 -0.266191,7.404043 l -3.613333,3.3625347 c -0.322601,0.30021 -0.827489,0.282058 -1.127698,-0.04054 -0.30021,-0.322601 -0.282059,-0.827489 0.04054,-1.127699 L 19.557186,8.0045217 C 21.030061,6.6338776 21.112935,4.3287504 19.742291,2.8558758 19.694574,2.8045994 19.645387,2.7547099 19.594793,2.7062694 18.021396,1.1998407 15.531707,1.2298924 13.99513,2.77386 L 10.662007,6.1230137 C 9.2106194,7.5813815 9.2102464,9.9383533 10.66117,11.397181 Z"
     id="path1"
     style="stroke-width:1.59584" />
</svg>
