<?xml version="1.0" encoding="UTF-8" standalone="no"?>
<!-- Uploaded to: SVG Repo, www.svgrepo.com, Generator: SVG Repo Mixer Tools -->

<svg
   version="1.0"
   id="Layer_1"
   width="800"
   height="800"
   viewBox="0 0 64 64"
   enable-background="new 0 0 64 64"
   xml:space="preserve"
   sodipodi:docname="musicnumber.svg"
   inkscape:export-filename="musicnumber.svg"
   inkscape:export-xdpi="96"
   inkscape:export-ydpi="96"
   xmlns:inkscape="http://www.inkscape.org/namespaces/inkscape"
   xmlns:sodipodi="http://sodipodi.sourceforge.net/DTD/sodipodi-0.dtd"
   xmlns:xlink="http://www.w3.org/1999/xlink"
   xmlns="http://www.w3.org/2000/svg"
   xmlns:svg="http://www.w3.org/2000/svg"><sodipodi:namedview
   id="namedview1"
   pagecolor="#ffffff"
   bordercolor="#000000"
   borderopacity="0.25"
   inkscape:showpageshadow="2"
   inkscape:pageopacity="0.0"
   inkscape:pagecheckerboard="0"
   inkscape:deskcolor="#d1d1d1"><inkscape:page
     x="0"
     y="0"
     width="64"
     height="64"
     id="page2"
     margin="0"
     bleed="0" /></sodipodi:namedview><defs
   id="defs1" />
<ellipse
   style="fill:#e55711;fill-opacity:1;stroke-width:0.0800344"
   id="path2"
   ry="31.972578"
   rx="31.917738"
   cy="31.972578"
   cx="32.02742" /><path
   fill="#231f20"
   d="M 47.667524,17.275064 H 16.332476 c -1.237174,0 -2.238217,0.823216 -2.238217,1.840617 v 25.768638 c 0,1.017401 1.001043,1.840617 2.238217,1.840617 h 31.335048 c 1.237174,0 2.238217,-0.823216 2.238217,-1.840617 V 19.115681 c 0,-1.017401 -1.001043,-1.840617 -2.238217,-1.840617 z m -5.03599,0.920309 V 35.681234 H 39.274207 V 18.195373 Z m -8.952871,0 V 35.681234 H 30.321337 V 18.195373 Z m -8.95287,0 V 35.681234 H 21.368466 V 18.195373 Z m -8.393317,27.609254 c -0.617748,0 -1.119108,-0.412298 -1.119108,-0.920308 V 19.115681 c 0,-0.50801 0.358674,-0.920308 1.119108,-0.920308 h 3.916881 v 17.946015 c 0,0.254465 0.250121,0.460154 0.559555,0.460154 h 1.678663 v 9.203085 z m 7.274208,0 v -9.203085 h 1.678663 c 0.309434,0 0.559554,-0.205689 0.559554,-0.460154 V 18.195373 h 3.357327 v 17.946015 c 0,0.254465 0.250121,0.460154 0.559554,0.460154 h 1.678664 v 9.203085 z m 8.95287,0 v -9.203085 h 1.678664 c 0.309433,0 0.559554,-0.205689 0.559554,-0.460154 V 18.195373 h 3.357327 v 17.946015 c 0,0.254465 0.25012,0.460154 0.559554,0.460154 h 1.678663 v 9.203085 z m 16.227078,-0.920308 c 0,0.50801 -0.50136,0.920308 -1.119108,0.920308 h -6.155099 v -9.203085 h 1.678663 c 0.309434,0 0.559555,-0.205689 0.559555,-0.460154 V 18.195373 h 3.916881 c 0.568507,0 1.119108,0.412298 1.119108,0.920308 z"
   id="path1"
   style="display:inline;fill:#ffffff;stroke-width:0.507426" />
<path
   style="display:inline;fill:#ffffff;fill-opacity:1;stroke-width:0.0548414"
   d="M 21.388175,26.954585 V 18.23479 h 1.645244 1.645244 v 8.719795 8.719793 h -1.645244 -1.645244 z"
   id="path3" /><path
   style="display:inline;fill:#ffffff;fill-opacity:1;stroke-width:0.0548414"
   d="M 30.327335,26.954585 V 18.23479 H 32 33.672665 v 8.719795 8.719793 H 32 30.327335 Z"
   id="path4" /><path
   style="display:inline;fill:#ffffff;fill-opacity:1;stroke-width:0.0548414"
   d="M 30.327335,26.954585 V 18.23479 H 32 33.672665 v 8.719795 8.719793 H 32 30.327335 Z"
   id="path5" /><path
   style="display:inline;fill:#ffffff;fill-opacity:1;stroke-width:0.0548414"
   d="M 30.327335,26.954585 V 18.23479 H 32 33.672665 v 8.719795 8.719793 H 32 30.327335 Z"
   id="path6" /><path
   style="display:inline;fill:#ffffff;fill-opacity:1;stroke-width:0.0548414"
   d="M 30.327335,26.954585 V 18.23479 H 32 33.672665 v 8.719795 8.719793 H 32 30.327335 Z"
   id="path7" /><path
   style="display:inline;fill:#ffffff;fill-opacity:1;stroke-width:0.0548414"
   d="M 30.327335,26.954585 V 18.23479 H 32 33.672665 v 8.719795 8.719793 H 32 30.327335 Z"
   id="path8" /><path
   style="display:inline;fill:#ffffff;fill-opacity:1;stroke-width:0.0548414"
   d="M 30.327335,26.954585 V 18.23479 H 32 33.672665 v 8.719795 8.719793 H 32 30.327335 Z"
   id="path9" /><path
   style="display:inline;fill:#ffffff;fill-opacity:1;stroke-width:0.0548414"
   d="M 30.327335,26.954585 V 18.23479 H 32 33.672665 v 8.719795 8.719793 H 32 30.327335 Z"
   id="path10" /><path
   style="display:inline;fill:#ffffff;fill-opacity:1;stroke-width:0.0548414"
   d="M 30.327335,26.954585 V 18.23479 H 32 33.672665 v 8.719795 8.719793 H 32 30.327335 Z"
   id="path11" /><path
   style="display:inline;fill:#ffffff;fill-opacity:1;stroke-width:0.0548414"
   d="M 30.327335,26.954585 V 18.23479 H 32 33.672665 v 8.719795 8.719793 H 32 30.327335 Z"
   id="path12" /><path
   style="display:inline;fill:#ffffff;fill-opacity:1;stroke-width:0.0548414"
   d="M 30.327335,26.954585 V 18.23479 H 32 33.672665 v 8.719795 8.719793 H 32 30.327335 Z"
   id="path13" /><path
   style="display:inline;fill:#ffffff;fill-opacity:1;stroke-width:0.0548414"
   d="M 30.327335,26.954585 V 18.23479 H 32 33.672665 v 8.719795 8.719793 H 32 30.327335 Z"
   id="path14" /><path
   style="display:inline;fill:#ffffff;fill-opacity:1;stroke-width:0.0548414"
   d="M 30.327335,26.954585 V 18.23479 H 32 33.672665 v 8.719795 8.719793 H 32 30.327335 Z"
   id="path15" /><path
   style="display:inline;fill:#ffffff;fill-opacity:1;stroke-width:0.0548414"
   d="M 30.327335,26.954585 V 18.23479 H 32 33.672665 v 8.719795 8.719793 H 32 30.327335 Z"
   id="path16" /><path
   style="display:inline;fill:#ffffff;fill-opacity:1;stroke-width:0.0548414"
   d="M 39.321337,26.954585 V 18.23479 h 1.645244 1.645244 v 8.719795 8.719793 h -1.645244 -1.645244 z"
   id="path17" /><path
   style="display:inline;fill:#ffffff;fill-opacity:1;stroke-width:0.0548414"
   d="M 39.321337,26.954585 V 18.23479 h 1.645244 1.645244 v 8.719795 8.719793 h -1.645244 -1.645244 z"
   id="path18" /><path
   style="display:inline;fill:#ffffff;fill-opacity:1;stroke-width:0.0548414"
   d="M 39.321337,26.954585 V 18.23479 h 1.645244 1.645244 v 8.719795 8.719793 h -1.645244 -1.645244 z"
   id="path19" /><path
   style="display:inline;fill:#ffffff;fill-opacity:1;stroke-width:0.0548414"
   d="M 39.321337,26.954585 V 18.23479 h 1.645244 1.645244 v 8.719795 8.719793 h -1.645244 -1.645244 z"
   id="path20" /><path
   style="display:inline;fill:#ffffff;fill-opacity:1;stroke-width:0.0548414"
   d="M 39.321337,26.954585 V 18.23479 h 1.645244 1.645244 v 8.719795 8.719793 h -1.645244 -1.645244 z"
   id="path21" /><path
   style="display:inline;fill:#ffffff;fill-opacity:1;stroke-width:0.0548414"
   d="M 39.321337,26.954585 V 18.23479 h 1.645244 1.645244 v 8.719795 8.719793 h -1.645244 -1.645244 z"
   id="path22" /><path
   style="display:inline;fill:#ffffff;fill-opacity:1;stroke-width:0.0548414"
   d="M 39.321337,26.954585 V 18.23479 h 1.645244 1.645244 v 8.719795 8.719793 h -1.645244 -1.645244 z"
   id="path23" /><path
   style="display:inline;fill:#ffffff;fill-opacity:1;stroke-width:0.0548414"
   d="M 21.388175,26.954585 V 18.23479 h 1.645244 1.645244 v 8.719795 8.719793 h -1.645244 -1.645244 z"
   id="path24" /><rect
   style="display:inline;fill:#ffffff;fill-opacity:1;stroke-width:0.08"
   id="rect24"
   width="4.6615252"
   height="18.097687"
   x="20.675238"
   y="17.713797" /><rect
   style="display:inline;fill:#ffffff;fill-opacity:1;stroke-width:0.08"
   id="rect25"
   width="4.3324766"
   height="18.152529"
   x="29.833763"
   y="17.768639" /><rect
   style="display:inline;fill:#ffffff;fill-opacity:1;stroke-width:0.08"
   id="rect26"
   width="4.5518422"
   height="18.042845"
   x="38.718082"
   y="17.768639" /><use
   x="0"
   y="0"
   xlink:href="#path1"
   id="use1"
   transform="translate(0,-0.38389031)"
   style="display:inline" /><use
   x="0"
   y="0"
   xlink:href="#use1"
   id="use2"
   transform="translate(0,1.2613539)"
   style="display:inline" /><use
   x="0"
   y="0"
   xlink:href="#use2"
   id="use3"
   style="display:none"
   transform="translate(0,-1.5904028)" /><use
   x="0"
   y="0"
   xlink:href="#use1"
   id="use4"
   transform="translate(0.8226221,0.82262211)"
   style="display:none" /><use
   x="0"
   y="0"
   xlink:href="#use4"
   id="use5"
   transform="translate(-1.5355613)"
   style="display:none" /><use
   x="0"
   y="0"
   xlink:href="#use5"
   id="use6"
   transform="translate(-0.05484147,-1.3710368)"
   style="display:none" /></svg>
