<?xml version="1.0" encoding="UTF-8" standalone="no"?>
<!-- Uploaded to: SVG Repo, www.svgrepo.com, Generator: SVG Repo Mixer Tools -->

<svg
   width="784.66986"
   height="762.58734"
   viewBox="-20 0 186.35909 181.11449"
   fill="none"
   version="1.1"
   id="svg1"
   sodipodi:docname="qrcode.svg"
   inkscape:export-filename="qrcode.png"
   inkscape:export-xdpi="24"
   inkscape:export-ydpi="24"
   xmlns:inkscape="http://www.inkscape.org/namespaces/inkscape"
   xmlns:sodipodi="http://sodipodi.sourceforge.net/DTD/sodipodi-0.dtd"
   xmlns="http://www.w3.org/2000/svg"
   xmlns:svg="http://www.w3.org/2000/svg">
  <defs
     id="defs1" />
  <sodipodi:namedview
     id="namedview1"
     pagecolor="#ffffff"
     bordercolor="#000000"
     borderopacity="0.25"
     inkscape:showpageshadow="2"
     inkscape:pageopacity="0.0"
     inkscape:pagecheckerboard="0"
     inkscape:deskcolor="#d1d1d1">
    <inkscape:page
       x="0"
       y="0"
       width="186.35909"
       height="181.11449"
       id="page2"
       margin="0"
       bleed="0" />
  </sodipodi:namedview>
  <path
     fill-rule="evenodd"
     clip-rule="evenodd"
     d="m 166.32102,23.157113 c -0.0521,1.338111 -0.0939,5.991185 -0.12922,12.878775 l -13.50081,0.259828 0.0896,-20.946414 -26.63287,-0.07795 L 125.67061,2.7238983e-7 C 137.69425,0.00866028 146.47604,0.07794828 149.14702,0.24900158 162.54576,1.1129276 166.81684,10.484033 166.32099,23.157113 Z m -33.42078,41.544228 h -30.3935 l -0.61878,-32.335516 30.17265,0.446039 z m -9.84018,-22.832328 -10.96316,2.043974 v 8.1759 l 10.96316,0.50883 z m -10.45688,54.719429 -31.549821,0.87475 1.0834,-34.351129 h 11.694457 l 0.285434,18.614248 18.19276,-0.954866 z M 81.726318,44.413155 81.632569,32.067026 93.52704,32.242408 93.36453,44.850531 Z m 13.602905,63.884825 0.477112,39.3552 -15.007159,0.1299 0.952143,-38.7749 z M 61.435505,31.766058 72.765357,31.934945 73.1633,67.912373 60.093758,68.092086 Z m -43.683892,36.53389 0.479195,-37.172631 34.560426,0.513159 -1.395918,36.884657 z M 41.2197,41.869013 30.25237,43.912987 v 8.1759 l 10.96733,0.50883 z M -3.8871966,14.892438 -4.0288719,39.309712 -18.906856,39.595522 c 0.05208,-10.455886 0.118755,-17.787346 0.235431,-19.781522 0.822967,-13.6582567 6.335799,-19.95040882 17.71773922,-19.46972832 2.18138198,0.09094 11.20276078,0.09094 23.76810478,0.04547 L 22.647743,14.96822 Z M -4.7747503,165.2175 20.935139,165.33653 20.760128,180.5386 C 10.359499,180.4866 2.5819448,180.40436 -0.54741125,180.27228 -14.931615,179.66817 -20.356943,170.13685 -19.98192,158.06353 c 0.127089,-4.11825 0.23543,-8.86444 0.333352,-14.05665 l 14.9946583,0.29446 z m 22.3721863,-84.957049 13.846672,0.510994 -0.289601,18.079657 -13.802919,0.38541 z m -0.410441,32.110329 32.933242,-1.71703 v 37.39132 l -33.39577,0.28581 z m 10.327708,21.51154 10.963163,0.50883 v -10.73087 l -10.963163,2.04397 z M 41.150946,98.573942 40.642581,81.444832 73.136213,82.57075 72.402838,97.705692 Z m 31.61858,10.899768 0.0042,38.37649 -14.44254,0.12341 0.0083,-37.74643 z m 41.977534,14.05665 -10.83607,-0.67339 v -15.00719 l 10.6444,-0.55646 z m 18.45113,-47.567669 1.08339,41.041679 -12.03614,-0.39623 -2.39598,-41.455245 z m 1.43965,54.682599 0.43961,16.67228 -29.92471,0.25549 1.1709,-17.56432 z m 17.57191,16.75238 13.68416,0.26849 c -0.025,6.20121 -0.0437,11.74203 -0.0729,16.31498 -0.0771,12.25304 -9.03805,17.72023 -24.12647,17.08366 -1.95637,-0.0823 -5.58367,-0.1429 -10.39646,-0.19703 l -0.46878,-15.02452 21.29921,0.0974 z"
     fill="#000000"
     id="path1"
     style="stroke-width:2.12396" />
</svg>
